<svg width="8" height="6" viewBox="0 0 8 6" fill="none" xmlns="http://www.w3.org/2000/svg">
<path d="M2.93261 5.54947L0.758138 3.38801C0.697374 3.32725 0.666992 3.24913 0.666992 3.15364C0.666992 3.05815 0.697374 2.98003 0.758138 2.91927L1.23991 2.45052C1.30067 2.38107 1.37663 2.34635 1.46777 2.34635C1.55892 2.34635 1.63921 2.38107 1.70866 2.45052L3.16699 3.90885L6.29198 0.783854C6.36142 0.71441 6.44172 0.679688 6.53286 0.679688C6.62401 0.679688 6.69996 0.71441 6.76073 0.783854L7.2425 1.2526C7.30326 1.31337 7.33364 1.39149 7.33364 1.48698C7.33364 1.58246 7.30326 1.66059 7.2425 1.72135L3.40136 5.54947C3.3406 5.61891 3.26247 5.65363 3.16699 5.65363C3.0715 5.65363 2.99338 5.61891 2.93261 5.54947Z" fill="#36B37E"/>
</svg>
